<?xml version="1.0" standalone="no"?>
<!DOCTYPE svg PUBLIC "-//W3C//DTD SVG 1.1//EN" "http://www.w3.org/Graphics/SVG/1.1/DTD/svg11.dtd" >
<!--
2013-9-30: Created.
-->
<svg>
<metadata>
Created by iconfont
</metadata>
<defs>

<font id="iconfont" horiz-adv-x="1024" >
  <font-face
    font-family="iconfont"
    font-weight="500"
    font-stretch="normal"
    units-per-em="1024"
    ascent="896"
    descent="-128"
  />
    <missing-glyph />
    
    <glyph glyph-name="bangbangtang" unicode="&#59115;" d="M512 384m-512 0a512 512 0 1 1 1024 0 512 512 0 1 1-1024 0ZM394.7 323.6c-0.6-0.7-1.1-1.5-1.7-2.3L236.3 97.5c-14.3-20.4-11.2-37.7 9.1-51.9 20.4-14.3 37.7-11.2 51.9 9.1l156.6 223.8c0.6 0.8 1.1 1.7 1.7 2.5-11.1 5.4-21.9 11.7-32.3 19-10.3 7.2-19.9 15.1-28.6 23.6zM423.3 300c106.7-74.8 253.9-48.9 328.6 57.9s48.9 253.9-57.9 328.6c0 0-0.1 0-0.1 0.1-106.8 74.7-253.9 48.8-328.6-57.9s-48.8-254 58-328.7zM753.9 447.4c18 25.8 30.7 54.9 37.3 85.7-21.6 128.5-143.3 215.2-271.8 193.6-95.1-16-170.8-88.2-191.4-182.4 21.7-128.5 143.4-215.1 271.9-193.5 62.3 10.5 117.8 45.6 154.1 97.3l-0.1-0.7zM397.1 652.1l366.2-256.4c20.3-14.2 23.4-31.5 9.1-51.9-14.2-20.3-31.5-23.4-51.9-9.1L354.3 591.1c-20.3 14.2-23.4 31.5-9.1 51.9 14.2 20.3 31.5 23.4 51.9 9.1z"  horiz-adv-x="1024" />

    
    <glyph glyph-name="aixin" unicode="&#59116;" d="M512 384m-512 0a512 512 0 1 1 1024 0 512 512 0 1 1-1024 0ZM782.5 578.3c-66.5 65.9-173.7 65.9-240.2 0L512 548.1l-30 30.3c-66.2 66.4-173.7 66.5-240.1 0.4s-66.5-173.7-0.4-240.1l60-60L481.4 99c16.6-16.5 43.4-16.5 60 0l179.9 179.7 61 60c66.3 66.2 66.3 173.4 0.2 239.6zM542 578.3l-30-30.2-30 30.3c-66.2 66.4-173.7 66.5-240.1 0.4s-66.5-173.7-0.4-240.1l60-60 70.8-69.1c113.9 29 212 101.3 273.4 201.6 39.6 63.1 63.5 134.7 69.6 209-60.9 19.8-128 3.6-173.3-41.9z"  horiz-adv-x="1024" />

    
    <glyph glyph-name="biaoqing" unicode="&#59117;" d="M512 384m-512 0a512 512 0 1 1 1024 0 512 512 0 1 1-1024 0ZM512 682.6c-165.1 0-299-133.8-299-298.9s133.9-298.9 299-298.9 298.9 133.8 298.9 298.9S677.1 682.6 512 682.6zM359 498c0 12.6 10.3 23 23 23s23-10.3 23-23v-46c0-12.6-10.3-23-23-23s-23 10.3-23 23v46z m177.9-310.5h-49.8c-68.8 0-124.6 55.8-124.6 124.6 0 13.8 11.2 24.9 24.9 24.9h249.1c13.8 0 24.9-11.2 24.9-24.9 0.1-68.8-55.7-124.6-124.5-124.6zM665 452c0-12.6-10.3-23-23-23s-23 10.3-23 23v46c0 12.6 10.3 23 23 23s23-10.3 23-23v-46zM698.9 616.6c-52.9 42.7-118.9 66-186.9 66-165.1-0.2-298.8-134.2-298.6-299.2 0.1-67.9 23.2-133.7 65.7-186.6C408.6 94.4 596.6 116.4 699 246c85.8 108.6 85.8 262-0.1 370.6zM359 498c0 12.6 10.3 23 23 23s23-10.3 23-23v-46c0-12.6-10.3-23-23-23s-23 10.3-23 23v46z m177.9-310.5h-49.8c-68.8 0-124.6 55.8-124.6 124.6 0 13.8 11.2 24.9 24.9 24.9h249.1c13.8 0 24.9-11.2 24.9-24.9 0.1-68.8-55.7-124.6-124.5-124.6zM665 452c0-12.6-10.3-23-23-23s-23 10.3-23 23v46c0 12.6 10.3 23 23 23s23-10.3 23-23v-46z"  horiz-adv-x="1024" />

    
    <glyph glyph-name="chabei" unicode="&#59118;" d="M512 384m-512 0a512 512 0 1 1 1024 0 512 512 0 1 1-1024 0ZM696.4 614.4h-448c-29.1 0-52.7-23.6-52.7-52.7v-289.9c0-87.3 70.8-158.1 158.1-158.1H591c87.3 0 158.1 70.8 158.1 158.1V561.7c0 29.1-23.6 52.7-52.7 52.7z m-143-255.8l-77.1-80.4c-2.3-2.4-6.1-2.5-8.4-0.2l-0.2 0.2-77.1 80.4c-14.7 14.7-18.3 37.1-9 55.6 11.9 23.8 40.8 33.4 64.6 21.5 4.6-2.3 8.8-5.4 12.5-9l9.1-9.1c2.3-2.3 6.1-2.3 8.4 0l9.1 9.1c18.8 18.8 49.3 18.8 68.1 0s18.8-49.3 0-68.1zM818.1 518.7c-23.6 6.4-47.5 5.1-69-2.3v-58.9c4.3 3.1 9 5.6 14.1 7.6 33.9 13.3 72.1-3.4 85.4-37.3 13.3-33.9-3.4-72.1-37.3-85.4-10-3.9-16.6-13.6-16.7-24.3-0.1-14.5 11.6-26.4 26.2-26.5 3.6 0.1 7.1 0.9 10.1 2.3 35 13.8 61.3 43.3 71 79.6 17 63.2-20.5 128.2-83.8 145.2zM248.4 614.4c-29.1 0-52.7-23.6-52.7-52.7v-289.9c0-87.3 70.8-158.1 158.1-158.1H512c87.3 0 158.1 70.8 158.1 158.1V614.4H248.4z m305-255.8l-77.1-80.4c-2.3-2.4-6.1-2.5-8.4-0.2l-0.2 0.2-77.1 80.4c-14.7 14.7-18.3 37.1-9 55.6 11.9 23.8 40.8 33.4 64.6 21.5 4.6-2.3 8.8-5.4 12.5-9l9.1-9.1c2.3-2.3 6.1-2.3 8.4 0l9.1 9.1c18.8 18.8 49.3 18.8 68.1 0s18.8-49.3 0-68.1z"  horiz-adv-x="1024" />

    
    <glyph glyph-name="chimian" unicode="&#59119;" d="M512 384m-512 0a512 512 0 1 1 1024 0 512 512 0 1 1-1024 0ZM476.7 424.4c-1.1 10.4-3.9 40.9-3.1 75.1 0 2 0.1 4 0.2 5.9h346.8c12.6 0 22.8 10.2 22.8 22.8S833.1 551 820.5 551H478.1c1.9 11.4 4.4 21.5 7.5 30.1h335c12.6 0 22.8 10.2 22.8 22.8 0 12.6-10.2 22.8-22.8 22.8H538.9c1.5 3 2.3 6.4 2.3 10 0 12.6-10.2 22.8-22.8 22.8-21.2 0-40-8.6-54.3-24.8-22.5-25.5-34.7-70.9-36.1-134.8-0.7-32.5 1.5-61.3 2.9-75.6h-47.1c-1.1 10.4-3.9 40.9-3.1 75.1 1.2 51.1 10 88.4 24.7 105.1 5.7 6.5 11.9 9.3 20.1 9.3 12.6 0 22.8 10.2 22.8 22.8 0 12.6-10.2 22.8-22.8 22.8-21.2 0-40-8.6-54.3-24.8-22.5-25.5-34.7-70.9-36.1-134.8-0.7-32.5 1.5-61.3 2.9-75.6h-46.1c-1.1 10.4-3.9 40.9-3.1 75.1 1.2 51.1 10 88.4 24.7 105.1 5.7 6.5 11.9 9.3 20.1 9.3 12.6 0 22.8 10.2 22.8 22.8 0 12.6-10.2 22.8-22.8 22.8-21.2 0-40-8.6-54.3-24.8-2.2-2.5-4.3-5.2-6.3-8.1h-39c-12.6 0-22.8-10.2-22.8-22.8 0-12.6 10.2-22.8 22.8-22.8h19c-2.4-9.2-4.4-19.3-6-30.1h-13c-12.6 0-22.8-10.2-22.8-22.8 0-12.6 10.2-22.8 22.8-22.8h9.2c-0.1-1.8-0.1-3.6-0.2-5.4-0.7-32.5 1.5-61.3 2.9-75.6l230.8 0.3zM302.3 301.9a8 8 0 1 1 16 0 8 8 0 1 1-16 0ZM748.7 325.4c0 35-9.2 68.4-25.8 99.1H202.5c-12.6 0-22.8-10.2-22.8-22.8 0 0-20.9-212.5 192.2-276.1v-21.3c0-6.2 5.1-11.4 11.4-11.4h225.4c6.2 0 11.4 5.1 11.4 11.4v17.3c0.3 0.1 0.5 0.1 0.8 0.2 78.3 49.3 127.8 122.2 127.8 203.6z m-46.4-28.9c7.7 0 14-6.2 14-14 0-7.7-6.2-14-14-14-7.7 0-14 6.3-14 14s6.3 14 14 14z m-341.2-45.4c-13-15.5-34.2-21.4-53.3-14.9-19.1 6.5-32.3 24.1-33.1 44.4-0.8 20.2 10.9 38.8 29.4 46.9 18.6 8 40.2 3.8 54.3-10.6 0.7-0.7 1.1-1.6 1.1-2.5s-0.4-1.8-1.1-2.5c-7.6-7.1-23.5-22.8-29.7-29 6.5-5.6 22.5-19.1 31.9-26.7 0.7-0.6 1.2-1.5 1.3-2.4 0.1-1.1-0.2-2-0.8-2.7z m28.3 17.4c-7.7 0-14 6.3-14 14s6.3 14 14 14 14-6.2 14-14c0-7.7-6.3-14-14-14z m62.6 0c-7.7 0-14 6.3-14 14s6.3 14 14 14 14-6.2 14-14c0-7.7-6.3-14-14-14z m62.5 0c-7.7 0-14 6.3-14 14s6.3 14 14 14 14-6.2 14-14c0.1-7.7-6.2-14-14-14z m62.6 0c-7.7 0-14 6.3-14 14s6.3 14 14 14 14-6.2 14-14c0.1-7.7-6.2-14-14-14z m62.6 0c-7.7 0-14 6.3-14 14s6.3 14 14 14 14-6.2 14-14c0-7.7-6.2-14-14-14zM807.9 399.2c1.1-15.6 16.8-221.5-187-277.4 203.8 55.9 188.1 261.8 187 277.4zM807.8 400v0zM620.9 121.8zM807.8 400.1v0zM807.8 399.7v0zM807.9 399.2v0.5 0.3 0.1c0.4 6.3-4.7 24.4-22.7 24.4H723c16.7-30.7 25.8-64.1 25.8-99.1 0-81.4-49.6-154.3-127.9-203.6 203.8 55.9 188.1 261.8 187 277.4z"  horiz-adv-x="1024" />

    
    <glyph glyph-name="gouwu" unicode="&#59121;" d="M512 384m-512 0a512 512 0 1 1 1024 0 512 512 0 1 1-1024 0ZM772 463.2l-7.9 63.3v0.2c-0.1 1-0.4 2.1-0.7 3.1v0.3l-0.2 0.4-25.7 72.1c-0.3 0.7-0.6 1.5-1 2.2-7 14.4-21.5 23.7-37.5 24h-24.1c-10 0-18.6-7.8-18.9-17.8-0.4-10.5 8-19.1 18.4-19.1H699c1.9-0.3 3.4-1.4 4.2-3.1l13.5-37.9c0.7-1.9 0.4-3.9-0.7-5.6-1.1-1.6-3-2.6-5-2.6h-67.3c-3.5 0-6.2 2.8-6.2 6.2v24.5c0 67.9-55.1 123-123 123s-123-55.1-123-123v-24.5c0-3.5-2.8-6.2-6.2-6.2h-69.8c-3.4 0-6.2 2.8-6.2 6.2 0 0.8 0.2 1.6 0.5 2.3l15.5 36.8c0.7 2.1 2.5 3.5 4.7 3.9h24.1c10 0 18.6 7.8 18.9 17.8 0.4 10.5-8 19.1-18.4 19.1H330c-16.5-0.5-31.3-10.2-38.1-25.3l-30.6-72.1v-0.2c-0.2-0.4-0.3-0.8-0.5-1.2v-0.4c-0.3-1-0.6-2.1-0.7-3.1l-39-310.8c-6.4-50.5 29.5-96.7 80.1-103 3.8-0.5 7.7-0.7 11.5-0.7h94.5C514.8 177.5 680.7 298.1 772 463.2zM440.7 573.5c0 41 33.3 74.1 74.3 73.8 40.7-0.3 73.3-34.1 73.3-74.8V549c0-3.5-2.8-6.2-6.2-6.2H446.9c-3.5 0-6.2 2.8-6.2 6.2v24.5z m152.7-257L514 233.6c-2.3-2.4-6.3-2.5-8.7-0.2l-0.2 0.2-79.4 82.9c-15.1 15.1-18.8 38.2-9.3 57.3 13.4 26.8 47.7 36.1 73.3 18.2 2.3-1.6 4.4-3.5 6.4-5.5l9.2-9.2c2.4-2.4 6.3-2.4 8.7 0l9.4 9.4c19.4 19.4 50.8 19.4 70.2 0 19.3-19.4 19.3-50.8-0.2-70.2zM803.7 204.4c0 3.8-0.3 7.7-0.7 11.4l-31 247.4c-91.3-165.1-257.2-285.7-364.8-351h304.1c51 0 92.4 41.2 92.4 92.2z"  horiz-adv-x="1024" />

    
    <glyph glyph-name="dushu" unicode="&#59122;" d="M512 384m-512 0a512 512 0 1 1 1024 0 512 512 0 1 1-1024 0ZM751.5 149.8l-233.3-10.6V507.8c0 36.2 28.5 66 64.6 67.6l162.5 7.4c38.6 1.8 70.8-29 70.8-67.6v-297.8c0.1-36.1-28.4-66-64.6-67.6zM715.7 205l-197.5-65.9V572.5L672.9 624c43.9 14.6 89.2-18 89.2-64.3v-290.6c-0.1-29-18.7-54.9-46.4-64.1zM440.1 575.4l-162.5 7.4c-38.6 1.8-70.8-29-70.8-67.6v-297.8c0-36.2 28.5-66 64.6-67.6l233.3-10.6V507.8c0 36.2-28.5 66-64.6 67.6z m-51.3-170.2c-0.3-1.1-0.9-1.8-1.7-2.5-0.8-0.6-1.8-1-2.9-1.1-2.1-0.1-4.1 1.2-4.8 3.3L367 438l-35.6-1.1c-2.1-0.1-3.8 0.8-4.5 2.8-0.7 2 0.3 3.9 1.9 5.1l27 20.6-11.7 34.4c-0.7 2-0.3 4.5 1.4 5.7l-0.1 0.1c1.7 1.3 4.3 1.1 6.2-0.2l30.6-19.3 27.1 20.9c1.7 1.3 3.7 1.8 5.5 0.6 1.8-1.1 2.5-3.2 1.8-5.2l-9.7-33.9 29.5-19.7c1.8-1.2 2.5-3.3 2-5.4-0.3-1.1-0.9-1.8-1.8-2.5-0.8-0.6-1.8-1-2.9-1.1l-35.3-1.3-9.6-33.3z m63.5-34.9c-4.1-3.2-11.5-4.2-11.5-4.2L400 424.8l2.5 8.6H413l48.1-51.6c-0.1 0-3.8-7.6-8.8-11.5zM350.1 624c-43.9 14.6-89.2-18-89.2-64.3v-290.6c0-29.1 18.6-55 46.3-64.3L504.7 139V572.5L350.1 624z m38.7-218.8c-0.3-1.1-0.9-1.8-1.7-2.5-0.8-0.6-1.8-1-2.9-1.1-2.1-0.1-4.1 1.2-4.8 3.3L367 438l-35.6-1.1c-2.1-0.1-3.8 0.8-4.5 2.8-0.7 2 0.3 3.9 1.9 5.1l27 20.6-11.7 34.4c-0.7 2-0.3 4.5 1.4 5.7l-0.1 0.1c1.7 1.3 4.3 1.1 6.2-0.2l30.6-19.3 27.1 20.9c1.7 1.3 3.7 1.8 5.5 0.6 1.8-1.1 2.5-3.2 1.8-5.2l-9.7-33.9 29.5-19.7c1.8-1.2 2.5-3.3 2-5.4-0.3-1.1-0.9-1.8-1.8-2.5-0.8-0.6-1.8-1-2.9-1.1l-35.3-1.3-9.6-33.3z m63.5-34.9c-4.1-3.2-11.5-4.2-11.5-4.2L400 424.8l2.5 8.6H413l48.1-51.6c-0.1 0-3.8-7.6-8.8-11.5z"  horiz-adv-x="1024" />

    
    <glyph glyph-name="liwu" unicode="&#59123;" d="M512 384m-512 0a512 512 0 1 1 1024 0 512 512 0 1 1-1024 0ZM289 582.6h445c10.9 0 16.3 10.9 13.6 19L715 666.7c-5.4 13.6-21.7 19-35.3 13.6L525 598.9c-8.1-2.7-13.6-2.7-21.7 0l-154.7 81.4c-13.6 5.4-29.8 0-35.3-13.6L278 601.6c-5.3-8.2 0.2-19 11-19zM240.2 352v-211.6c0-29.8 24.4-54.3 54.3-54.3h189.9V406.2h-190c-29.8 0-54.2-24.4-54.2-54.2zM782.8 555.5H538.6V447h244.2c16.3 0 27.1 10.9 27.1 27.1v54.3c0.1 13.5-10.8 27.1-27.1 27.1zM213 528.3V474c0-16.3 10.9-27.1 27.1-27.1h244.2V555.5H240.2c-16.3 0-27.2-13.6-27.2-27.2zM742.6 404.4c10.2-25.5 15.7-52.7 15.7-81.1 0-109.5-82-202.7-196.5-237.2h166.8c29.8 0 54.3 24.4 54.3 54.3V352c-0.1 25-17.2 46.1-40.3 52.4zM758.3 323.2c0 28.4-5.5 55.7-15.7 81.1-4.5 1.2-9.2 1.9-14.1 1.9H538.6V86h23.2c114.5 34.5 196.5 127.7 196.5 237.2z"  horiz-adv-x="1024" />

    
    <glyph glyph-name="huiyuan" unicode="&#59124;" d="M512 384m-512 0a512 512 0 1 1 1024 0 512 512 0 1 1-1024 0ZM816.9 574.7l-125.2-91.8c-10.3-7.6-24.9-4.8-31.8 5.9L531.3 690.2c-8.7 13.6-28.6 13.6-37.3 0L365.4 488.9c-6.9-10.8-21.6-13.5-31.9-5.8L208 576.9c-15.6 11.7-37.7-1.1-35.2-20.5l45.7-362.2c6.3-50 48.8-87.5 99.2-87.5h385.7c50 0 92.3 36.9 99.1 86.5L852 553.8c2.6 19.4-19.3 32.4-35.1 20.9zM624.5 209.4c0-15.2-12.4-27.5-27.5-27.5H423.1c-15.2 0-27.5 12.4-27.5 27.5 0 15.2 12.4 27.5 27.5 27.5H597c15.1 0.1 27.5-12.3 27.5-27.5zM764.7 186.5L531.3 690.2c-8.7 13.6-28.6 13.6-37.3 0L365.4 488.9c-6.9-10.8-21.6-13.5-31.9-5.8L208 576.9c-15.6 11.7-37.7-1.1-35.2-20.5l45.7-362.2c6.3-50 48.8-87.5 99.2-87.5h389c41.5 0 70.8 40.4 58 79.8z m-140.2 22.9c0-15.2-12.4-27.5-27.5-27.5H423.1c-15.2 0-27.5 12.4-27.5 27.5 0 15.2 12.4 27.5 27.5 27.5H597c15.1 0.1 27.5-12.3 27.5-27.5z"  horiz-adv-x="1024" />

    
    <glyph glyph-name="zhaopian" unicode="&#59127;" d="M512 384m-512 0a512 512 0 1 1 1024 0 512 512 0 1 1-1024 0ZM740.6 613.9h-457c-27 0-48.9-21.9-48.9-48.9v-362.4c0-27 21.9-48.9 48.9-48.9h457c27 0 48.9 21.9 48.9 48.9V565c0 27-21.9 48.9-48.9 48.9z m-37.8-351.4c-4.9-3.3-10.5-4.9-16.1-4.9-9.5 0-18.7 4.6-24.4 13.1l-87.1 131.5-71.8-84.7c-6.3-7.4-15.3-10.9-24.3-10.2-8.8-0.6-17.7 2.8-23.8 9.9l-38.9 44.5-57.6-90.6c-5.6-8.8-15.1-13.6-24.7-13.6-5.4 0-10.8 1.5-15.6 4.6-13.6 8.6-17.7 26.7-9 40.3L388.1 426c4.9 7.8 13.2 12.8 22.4 13.5 9.1 0.7 18.2-2.9 24.2-9.9L479 379l77 90.7c5.9 7 14.9 10.9 24 10.3 9.2-0.6 17.6-5.4 22.6-13.1L711 303c8.9-13.5 5.2-31.6-8.2-40.5zM499.3 355.8L479 379l-20-23.6c-10.5-12.3-9-30.7 3.3-41.2 4.9-4.2 10.9-6.4 16.9-6.9 6.2 0.4 12.3 2.8 17.4 7.2 12.1 10.7 13.3 29.1 2.7 41.3z"  horiz-adv-x="1024" />

    
    <glyph glyph-name="qianbao" unicode="&#59128;" d="M512 384m-512 0a512 512 0 1 1 1024 0 512 512 0 1 1-1024 0ZM778.5 615.1c0.8 24.7-28 42.5-60 37.1L256 573.4c-23.1-2.5-40.4-18.5-38.6-35.8 1.8-17.3 22.1-29.4 45.2-26.9l512.2-1.3 3.7 105.7zM766.3 583.9H258.5c-24.1-0.1-43.7-19.6-43.7-43.7v-359.9c0-24.1 19.5-43.7 43.7-43.7h507.8c24.1 0 43.7 19.5 43.7 43.7V540.2c0 24.1-19.5 43.7-43.7 43.7z m-11.5-362.1H622.3c-77.7 0-141 63.3-141 141.2 0 77.6 64.8 141.1 142.3 141.1h131c16.1 0 29.3-13 29.6-29 0.3-16.6-13.7-30.3-30.3-30.3H622.4c-45.3 0-82.1-37-81.8-82.2 0.2-45.2 37.6-81.3 82.7-81.3h132.2c16.1 0 29.3-13 29.6-29 0.3-16.8-13.6-30.5-30.3-30.5z m-89.3 142.1c0-21.3-17.3-38.6-38.6-38.6s-38.6 17.3-38.6 38.6 17.3 38.6 38.6 38.6 38.6-17.2 38.6-38.6zM612.183852 328.275289a38.6 38.6 0 1 1 29.543161 71.3235 38.6 38.6 0 1 1-29.543161-71.3235Z"  horiz-adv-x="1024" />

    
    <glyph glyph-name="shangban" unicode="&#59129;" d="M512 384m-512 0a512 512 0 1 1 1024 0 512 512 0 1 1-1024 0ZM652.8 541.3h-6.4c-7.1 0-12.8 5.8-12.8 12.8v32c0 42.4-34.4 76.9-76.9 76.9H467c-42.4 0-76.9-34.4-76.9-76.9v-32c0-7.1-5.8-12.8-12.8-12.8h-6.4c-7.1 0-12.8-5.8-12.8-12.8v-409.9c0-7.1 5.8-12.8 12.8-12.8h281.9c7.1 0 12.8 5.8 12.8 12.8V528.5c0 7.1-5.7 12.8-12.8 12.8z m-211.4 44.8c0 14.1 11.4 25.6 25.6 25.6h89.6c14.1 0 25.6-11.4 25.6-25.6v-32c0-7.1-5.8-12.8-12.8-12.8H454.3c-7.1 0-12.8 5.8-12.8 12.8v32z m133.5-279c13.9-13.9 13.9-27.8 0-41.7-13.9-13.9-27.8-13.9-41.7 0l-20.9 20.9-20.9-20.9c-13.9-13.9-27.8-13.9-41.7 0s-13.9 27.8 0 41.7l20.9 20.9-20.9 20.9c-13.9 13.9-13.9 27.8 0 41.7s27.8 13.9 41.7 0l20.9-20.9 20.9 20.9c13.9 13.9 27.8 13.9 41.7 0 13.9-13.9 13.9-27.8 0-41.7L554.1 328l20.8-20.9zM294.1 541.3c-49.5 0-89.6-40.1-89.6-89.6v-256.3c0-49.5 40.1-89.6 89.6-89.6 7.1 0 12.8 5.8 12.8 12.8V528.5c0 7.1-5.7 12.8-12.8 12.8zM729.7 541.3c-7.1 0-12.8-5.8-12.8-12.8v-409.9c0-7.1 5.8-12.8 12.8-12.8 49.5 0 89.6 40.1 89.6 89.6V451.6c0.1 49.5-40.1 89.7-89.6 89.7z"  horiz-adv-x="1024" />

    
    <glyph glyph-name="shuidi" unicode="&#59130;" d="M512 384m-512 0a512 512 0 1 1 1024 0 512 512 0 1 1-1024 0ZM529.5 702.2c-9.7 9.6-25.5 9.6-35.2 0-57.9-56.1-233.9-241.5-233.9-391.2 0-138.9 112.6-251.5 251.5-251.5S763.4 172.1 763.4 311c0 149.7-176.1 335.1-233.9 391.2zM564.4 322v-0.4h-111c-21.7 0.7-39.2 18.7-39.2 40.7 0 15.5 8.6 28.9 21.4 35.8-3.2 4.5-5.1 9.9-5.1 15.9 0 15.2 12.3 27.4 27.4 27.4 6.2 0 11.8-2.1 16.4-5.4 9.6 6.1 21 9.6 33.3 9.6 19.4 0 36.6-8.9 48.1-22.8 0.8 0 1.6 0.1 2.4 0.1 28 0 50.7-22.7 50.7-50.7 0-25.7-19.4-47-44.4-50.2zM667.9 543.2c-41.6 56.8-87.9 109.9-138.4 159-9.7 9.6-25.5 9.6-35.2 0-57.9-56.1-233.9-241.5-233.9-391.2-0.1-72.8 30.8-142.1 85.1-190.6 156.4-7.3 298.3 125.8 322.4 310.2 5.2 37.3 5.2 75.2 0 112.6zM564.4 322l-110.9-0.4c-21.7 0.7-39.2 18.7-39.2 40.7 0 15.5 8.6 28.9 21.4 35.8-3.2 4.5-5.1 9.9-5.1 15.9 0 15.2 12.3 27.4 27.4 27.4 6.2 0 11.8-2.1 16.4-5.4 9.6 6.1 21 9.6 33.3 9.6 19.4 0 36.6-8.9 48.1-22.8 0.8 0 1.6 0.1 2.4 0.1 28 0 50.7-22.7 50.7-50.7-0.1-25.7-19.5-47-44.5-50.2z"  horiz-adv-x="1024" />

    
    <glyph glyph-name="weizhi" unicode="&#59132;" d="M512 384m-512 0a512 512 0 1 1 1024 0 512 512 0 1 1-1024 0ZM707.5 648.2c-108.2 108.2-283.5 108.2-391.7 0-94.1-94.1-108-241.8-33-351.8 109.9-161.3 347.8-161.3 457.7 0 74.9 110 61.1 257.7-33 351.8zM613 422.5c-16.5 0-29.8 13.4-29.8 29.8 0 40.8-33.2 74-74 74s-74-33.2-74-74 33.2-74 74-74c16.5 0 29.8-13.4 29.8-29.8s-13.4-29.8-29.8-29.8c-73.7 0-133.7 60-133.7 133.7S435.5 586 509.2 586s133.7-60 133.7-133.7c-0.1-16.4-13.4-29.8-29.9-29.8zM282.8 296.4L430.9 79c38.8-56.9 122.7-56.9 161.5 0l148.1 217.4C630.6 135 392.7 135 282.8 296.4z"  horiz-adv-x="1024" />

    
    <glyph glyph-name="xinxi" unicode="&#59133;" d="M512 384m-512 0a512 512 0 1 1 1024 0 512 512 0 1 1-1024 0ZM512.9 660.6c-152.8-0.2-276.5-124.2-276.2-277 0.1-78.4 33.5-153.1 91.8-205.5v-62c0-4.8 3.9-8.8 8.8-8.8h173.5c152.7 0 279.3 124.9 278.8 277.6-0.7 152.4-124.3 275.7-276.7 275.7z m-79.2-287.3c0-13.2-10.8-23.9-23.9-23.9-13.2 0-23.9 10.8-23.9 23.9v21.3c0 13.2 10.8 23.9 23.9 23.9 13.2 0 23.9-10.8 23.9-23.9v-21.3z m100 0c0-13.2-10.8-23.9-23.9-23.9-13.2 0-23.9 10.8-23.9 23.9v21.3c0 13.2 10.8 23.9 23.9 23.9 13.2 0 23.9-10.8 23.9-23.9v-21.3z m100 0c0-13.2-10.8-23.9-23.9-23.9-13.2 0-23.9 10.8-23.9 23.9v21.3c0 13.2 10.8 23.9 23.9 23.9 13.2 0 23.9-10.8 23.9-23.9v-21.3zM478.3 658.3C326.8 638.9 219.6 500.4 239 348.8c8.4-65.8 40.2-126.4 89.5-170.7v-63.6c0-4 3.2-7.2 7.2-7.2h108.1C596.5 107.3 744 231.2 744 384c-0.1 139.3-127.4 256.8-265.7 274.3z m-44.6-285c0-13.2-10.8-23.9-23.9-23.9-13.2 0-23.9 10.8-23.9 23.9v21.3c0 13.2 10.8 23.9 23.9 23.9 13.2 0 23.9-10.8 23.9-23.9v-21.3z m100 0c0-13.2-10.8-23.9-23.9-23.9-13.2 0-23.9 10.8-23.9 23.9v21.3c0 13.2 10.8 23.9 23.9 23.9 13.2 0 23.9-10.8 23.9-23.9v-21.3z m100 0c0-13.2-10.8-23.9-23.9-23.9-13.2 0-23.9 10.8-23.9 23.9v21.3c0 13.2 10.8 23.9 23.9 23.9 13.2 0 23.9-10.8 23.9-23.9v-21.3zM744 384z"  horiz-adv-x="1024" />

    
    <glyph glyph-name="yinliao" unicode="&#59134;" d="M512 384m-512 0a512 512 0 1 1 1024 0 512 512 0 1 1-1024 0ZM464.9 694c8.4 6 18.2 10 28.5 11.5 6.7 0.3 12 6 11.7 12.7v0.5c-0.4 6.6-6.1 11.6-12.7 11.2-14.7-1.6-28.7-7-40.7-15.6-14.1-8.2-25.9-19.6-34.7-33.2 7.8-2.6 14.9-6.7 21.1-11.8 7 10.1 16.1 18.5 26.8 24.7zM662.6 50.9c-34.5 23.1-75.1 35.4-116.6 35.4h-67.8c-41.5-0.1-82.1-12.4-116.6-35.4-2.1-1.4-3.3-3.7-3.3-6.2 0-4 3.4-7.3 7.4-7.2h292.6c2.5 0 4.8 1.2 6.4 3.3 2.2 3.3 1.3 7.9-2.1 10.1zM438.1 669.3c-6.2 5.2-13.3 9.2-21.1 11.8-6.5 2.2-13.4 3.4-20.6 3.4-35.8 0-64.9-29-64.9-64.9 0-35.8 29.1-64.9 64.9-64.9s64.9 29.1 64.9 64.9c0 19.9-9 37.8-23.2 49.7zM492.5 298l-4.9 5.7v-241.8h48.8V303.8l-5-5.8c-10.2-11.9-28.7-11.9-38.9 0zM751.7 616.7H272.3c-5.8 0-11.4-2.1-15.9-5.9-10.2-8.8-11.4-24.1-2.7-34.4l233.9-272.7 4.9-5.7c10.2-11.9 28.7-11.9 38.9 0l5 5.8 233.8 272.7c3.8 4.4 5.9 10 5.9 15.9 0 13.4-10.9 24.3-24.4 24.3zM476.9 431.4c-2.9-4.1-9-4.1-11.8 0l-20.2 28.9c-14.8 21.2 0.3 50.2 26.2 50.2 25.7 0.1 40.8-29 26-50.2l-20.2-28.9zM272.3 616.7c-13.5 0-24.4-10.9-24.4-24.4 0-5.8 2.1-11.4 5.9-15.9L471 323.1l251.7 293.6H272.3z m204.6-185.3c-2.9-4.1-9-4.1-11.8 0l-20.2 28.9c-14.8 21.2 0.3 50.2 26.2 50.2 25.8 0 41-29.1 26.2-50.2l-20.4-28.9z"  horiz-adv-x="1024" />

    
    <glyph glyph-name="tongzhi" unicode="&#59135;" d="M512 384m-512 0a512 512 0 1 1 1024 0 512 512 0 1 1-1024 0ZM452.7 157.3c0-32.7 26.5-59.3 59.3-59.3 32.7 0 59.3 26.5 59.3 59.3 0 32.7-26.5 59.3-59.3 59.3s-59.3-26.6-59.3-59.3zM512 679.9c-119.2 0-215.9-96.6-215.9-215.9v-238.6h431.7V464c0 119.2-96.6 215.9-215.8 215.9zM531.5 429l-55.4-96.4c-4.3-7.5-13.8-3.7-13.8 5.5v57.7c0 5.2-3.4 9.5-7.6 9.5h-24.2c-6.2 0-9.8 8.7-6.2 15l55.4 96.4c4.3 7.5 13.8 3.7 13.8-5.5v-57.7c0-5.2 3.4-9.5 7.6-9.5h24.2c6.2 0 9.8-8.7 6.2-15zM477.9 676.9C373.2 660.3 296.1 570 296.1 464v-238.6h363.5V464c0 106-77 196.3-181.7 212.9zM531.5 429l-55.4-96.4c-4.3-7.5-13.8-3.7-13.8 5.5v57.7c0 5.2-3.4 9.5-7.6 9.5h-24.2c-6.2 0-9.8 8.7-6.2 15l55.4 96.4c4.3 7.5 13.8 3.7 13.8-5.5v-57.7c0-5.2 3.4-9.5 7.6-9.5h24.2c6.2 0 9.8-8.7 6.2-15zM732.1 154.5H291.8c-22.6 0-41.2 18.5-41.2 41.2 0 22.6 18.5 41.2 41.2 41.2h440.3c22.6 0 41.2-18.5 41.2-41.2 0-22.7-18.5-41.2-41.2-41.2z"  horiz-adv-x="1024" />

    
    <glyph glyph-name="youxi" unicode="&#59136;" d="M512 384m-512 0a512 512 0 1 1 1024 0 512 512 0 1 1-1024 0ZM637.9 476.7H386c-98.8 0-179.7-80.9-179.7-179.7 0-98.8 80.9-179.7 179.7-179.7h251.9c98.8 0 179.7 80.9 179.7 179.7 0 98.8-80.8 179.7-179.7 179.7zM427.7 271.9h-21.8v-21.8c0-14.6-7.3-21.8-21.8-21.8-14.6 0-21.8 7.3-21.8 21.8v21.8h-21.8c-14.6 0-21.8 7.3-21.8 21.8 0 14.6 7.3 21.8 21.8 21.8h21.8v21.8c0 14.6 7.3 21.8 21.8 21.8 14.6 0 21.8-7.3 21.8-21.8v-21.8h21.8c14.6 0 21.8-7.3 21.8-21.8s-7.3-21.8-21.8-21.8z m234-21.8c-24.1 0-43.7 19.6-43.7 43.7s19.6 43.7 43.7 43.7 43.7-19.6 43.7-43.7-19.5-43.7-43.7-43.7zM512 488.4c-12.1 0-21.8 9.8-21.8 21.8v43.7c0.1 31.3 12.6 61.4 34.9 83.4l43.7 43.7c6.3 10.3 19.8 13.5 30 7.2 10.3-6.3 13.5-19.8 7.2-30-1.7-2.7-3.9-5.1-6.6-6.8l-43.7-43.7c-13.8-13.6-21.6-32.1-21.8-51.5v-43.7c1.2-12-7.5-22.7-19.5-23.9-0.9-0.1-1.7-0.2-2.4-0.2z"  horiz-adv-x="1024" />

    
    <glyph glyph-name="zhibo" unicode="&#59137;" d="M512 384m-512 0a512 512 0 1 1 1024 0 512 512 0 1 1-1024 0ZM508.5 39.2c-18.8 0-34.1 15.3-34.1 34.1v73.5c0 18.8 15.3 34.1 34.1 34.1s34.1-15.3 34.1-34.1v-73.5c0-18.9-15.2-34.1-34.1-34.1zM514.1 727C425.6 727 354 655.3 354 566.9v-165c0-88.4 71.7-160.1 160.1-160.1 88.4 0 160.1 71.7 160.1 160.1v165c0 88.4-71.7 160.1-160.1 160.1z m57.8-350.2H453.1c-18.8 0-34.1 15.3-34.1 34.1s15.3 34.1 34.1 34.1h118.8c18.8 0 34.1-15.3 34.1-34.1s-15.3-34.1-34.1-34.1z m0 140H453.1c-18.8 0-34.1 15.3-34.1 34.1s15.3 34.1 34.1 34.1h118.8c18.8 0 34.1-15.3 34.1-34.1s-15.3-34.1-34.1-34.1zM511.6 125c-150.4 0-272.7 122.3-272.7 272.7 0 18.8 15.3 34.1 34.1 34.1s34.1-15.3 34.1-34.1c0-112.8 91.8-204.6 204.6-204.6s204.6 91.8 204.6 204.6c0 18.8 15.3 34.1 34.1 34.1s34.1-15.3 34.1-34.1C784.3 247.3 661.9 125 511.6 125z"  horiz-adv-x="1024" />

    
    <glyph glyph-name="shoucang" unicode="&#59138;" d="M512 384m-512 0a512 512 0 1 1 1024 0 512 512 0 1 1-1024 0ZM818.2 466.1l-202.8 29.5L525 678.8c-1.5 2.9-4 5.2-7 6.6-7.3 3.1-15.7-0.2-18.9-7.5l-90.4-183.3-202.3-29.5c-2.5-0.5-4.8-1.7-6.7-3.2-6-5.3-6.6-14.3-1.4-20.2l146.5-142.8-34.2-201.6c-0.5-3 0-6.1 1.4-8.9 3.6-7 12.3-9.9 19.3-6.3l180.9 94.2 180.9-94.2c2.7-1.4 5.8-1.8 8.9-1.4 7.9 1.3 13.1 8.6 11.9 16.4l-34.6 201.6 147 143.6c1.7 1.9 2.8 4.2 3.2 6.7 1.6 7.9-3.5 15.5-11.3 17.1zM575 348.5l-22.3-22.3-30-30c-5.8-5.8-15.3-5.8-21.2 0l-30.1 30.1-22.2 22.2c-17.6 17.6-17.6 46.1 0 63.7 17.4 17.4 45.3 17.6 62.9 0.7 17.6 16.8 45.5 16.6 62.9-0.7 17.6-17.6 17.6-46.1 0-63.7zM616.7 496L525 678.7c-3.6 7.1-12.2 10-19.3 6.4-2.8-1.4-5-3.6-6.4-6.4l-90.4-183.3-203-29.5c-7.8-1.6-12.8-9.1-11.3-16.9 0.5-2.5 1.7-4.8 3.2-6.7l147-143.5-13.9-80.1c138.4 5.7 262.3 87.2 322.4 212 9.2 18.2 17.1 37.1 23.6 56.5l-60.2 8.8zM575 348.5l-22.3-22.3-30-30c-5.8-5.8-15.3-5.8-21.2 0l-30.1 30.1-22.2 22.2c-17.6 17.6-17.6 46.1 0 63.7 17.4 17.4 45.3 17.6 62.9 0.7 17.6 16.8 45.5 16.6 62.9-0.7 17.6-17.6 17.6-46.1 0-63.7z"  horiz-adv-x="1024" />

    
    <glyph glyph-name="dayuhao" unicode="&#58991;" d="M703.591061 384.426719 383.764895 64.643532 383.764895 256.259664 511.93195 384.597611 383.764895 512.21208 383.764895 704.29484Z"  horiz-adv-x="1024" />

    
    <glyph glyph-name="dayuhao1" unicode="&#58917;" d="M798.38 357.97l-575.1 346.2 0.04 68.75 575.04-345.6 0.02-69.35zM798.38 357.97L223.3 1.01v69.52l575.06 356.79 0.02-69.35z"  horiz-adv-x="1024" />

    
    <glyph glyph-name="xiaoyuhao" unicode="&#58920;" d="M224.45 357.32l575.11 346.21-0.05 68.75-575.03-345.61-0.03-69.35zM224.45 357.32l575.08-356.96v69.52L224.48 426.67l-0.03-69.35z"  horiz-adv-x="1024" />

    
    <glyph glyph-name="jiahao" unicode="&#58908;" d="M821 332.8H566.2v-254.9c0-28.1-22.8-51-51-51-28.1 0-51 22.8-51 51V332.8H209.4c-28.1 0-51 22.8-51 51 0 28.1 22.8 51 51 51h254.8V689.6c0 28.1 22.8 51 51 51s51-22.8 51-51v-254.9H821c28.2 0 51-22.8 51-51 0-28.1-22.8-50.9-51-50.9z"  horiz-adv-x="1024" />

    
    <glyph glyph-name="jianqu" unicode="&#58925;" d="M23.272727 418.909091m34.909091 0l907.636364 0q34.909091 0 34.909091-34.909091l0 0q0-34.909091-34.909091-34.909091l-907.636364 0q-34.909091 0-34.909091 34.909091l0 0q0 34.909091 34.909091 34.909091Z"  horiz-adv-x="1024" />

    
    <glyph glyph-name="Phone-" unicode="&#60051;" d="M615.424 31.488c-89.984 0-161.44 43.008-271.2 152.736-138.112 138.112-170.528 215.648-144.512 345.696 25.408 127.008 125.952 178.592 130.208 180.736a31.968 31.968 0 0 0 36.928-6.016l158.4-158.4a31.968 31.968 0 0 0 0-45.248l-82.112-82.112c3.744-9.632 16.448-33.216 59.488-76.256s66.656-55.776 76.256-59.488l82.112 82.112a31.968 31.968 0 0 0 45.248 0l158.4-158.4a32 32 0 0 0 6.016-36.928c-2.144-4.256-53.728-104.8-180.736-130.208-26.72-5.344-51.232-8.224-74.496-8.224zM339.808 641.184a204.672 204.672 0 0 1-77.344-123.84c-19.776-98.912-3.552-157.28 127.008-287.872 130.592-130.624 188.96-146.784 287.872-127.008a204.704 204.704 0 0 1 123.84 77.344l-117.536 117.536-67.872-67.872c-4.608-4.608-22.304-18.72-55.36-7.744-27.68 9.216-61.376 33.952-103.04 75.616-41.664 41.664-66.4 75.36-75.616 103.04-11.04 33.152 3.136 50.752 7.744 55.36l67.872 67.872-117.568 117.568zM584.096 281.6h0.32-0.32zM512.448-128c-14.976 0-30.048 0.64-45.216 1.92C217.856-104.864 17.44 99.648 1.12 349.696A513.056 513.056 0 0 0 149.76 745.792 513.344 513.344 0 0 0 545.632 894.912c245.92-15.712 450.368-212 475.584-456.608a511.904 511.904 0 0 0-27.744-228.928 31.968 31.968 0 1 0-60.16 21.824c23.2 64 31.36 131.488 24.256 200.544-22.112 213.888-200.96 385.568-416.064 399.296A449.28 449.28 0 0 1 195.008 700.576a449.056 449.056 0 0 1-130.016-346.72c14.272-218.688 189.536-397.632 407.68-416.16 100.992-8.672 198.944 15.712 283.008 70.304a29.952 29.952 0 0 1 13.536 22.464 32.576 32.576 0 0 1-9.44 26.56l-6.176 6.176a31.968 31.968 0 1 0 45.12 45.376l6.176-6.144c20.8-20.672 31.008-49.312 27.968-78.528a94.048 94.048 0 0 0-42.336-69.536A506.752 506.752 0 0 0 512.448-128z"  horiz-adv-x="1024" />

    
    <glyph glyph-name="picture" unicode="&#59970;" d="M256 416a96 96 0 1 1-96 96 96 96 0 0 1 96-96z m0 128a32 32 0 1 0-32-32 32 32 0 0 0 32 32zM960 736H64a32 32 0 0 1-32-32v-640a32 32 0 0 1 32-32h896a32 32 0 0 1 32 32V704a32 32 0 0 1-32 32zM210.56 96l189.44 236.8 189.44-236.8zM672 96l-103.04 128 57.92 76.8 181.76-204.8z m256 0h-32l-246.4 277.12a32 32 0 0 1-49.6-1.92l-71.36-96-102.08 128a32 32 0 0 1-49.92 0L128 96H96V672h832z"  horiz-adv-x="1024" />

    
    <glyph glyph-name="yonghu" unicode="&#58896;" d="M858.5 132.4c-18.9 44.8-46.1 85-80.6 119.5-34.5 34.5-74.7 61.6-119.5 80.6-0.4 0.2-0.8 0.3-1.2 0.5C719.5 378 760 451.3 760 534c0 137-111 248-248 248S264 671 264 534c0-82.7 40.5-156 102.8-201.1-0.4-0.2-0.8-0.3-1.2-0.5-44.8-18.9-85-46-119.5-80.6-34.5-34.5-61.6-74.7-80.6-119.5C146.9 88.5 137 42 136-5.8c-0.1-4.5 3.5-8.2 8-8.2h60c4.4 0 7.9 3.5 8 7.8 2 77.2 33 149.5 87.8 204.3 56.7 56.7 132 87.9 212.2 87.9s155.5-31.2 212.2-87.9C779 143.3 810 71 812-6.2c0.1-4.4 3.6-7.8 8-7.8h60c4.5 0 8.1 3.7 8 8.2-1 47.8-10.9 94.3-29.5 138.2zM512 362c-45.9 0-89.1 17.9-121.6 50.4S340 488.1 340 534c0 45.9 17.9 89.1 50.4 121.6S466.1 706 512 706s89.1-17.9 121.6-50.4S684 579.9 684 534c0-45.9-17.9-89.1-50.4-121.6S557.9 362 512 362z"  horiz-adv-x="1024" />

    
    <glyph glyph-name="weixin" unicode="&#59014;" d="M421.958 258.727c0 61.925 28.32 119.785 79.811 163.146 50.272 42.277 116.805 65.584 187.537 65.584 22.9 0 45.936-2.575 68.159-7.453-1.49 149.054-145.667 269.652-323.312 269.652-178.458 0-323.311-121.817-323.311-272.09 0-81.71 42.954-154.881 110.706-204.747l-48.51-101.492c-1.084-2.168-0.271-4.742 1.897-5.826 1.22-0.678 2.846-0.678 4.2 0.135l117.347 65.855-0.136 0.135c42.277-16.667 87.264-25.339 132.658-25.88-4.607 17.344-7.046 35.095-7.046 52.981z m128.05 334.016c21.681 0 39.161-17.48 39.161-39.16s-17.48-39.16-39.16-39.16-39.16 17.48-39.16 39.16 17.48 39.16 39.16 39.16z m-232.794-78.32c-21.68 0-39.16 17.48-39.16 39.16s17.48 39.16 39.16 39.296c21.68 0 39.16-17.48 39.296-39.16 0-21.817-17.616-39.297-39.296-39.297zM849.2 104.795c50.95 37.534 83.064 92.684 83.064 153.932 0 93.09-74.256 171.818-175.748 196.345-21.951 5.284-44.445 7.859-67.074 7.859-134.149 0-242.822-91.465-242.822-204.204 0-17.886 2.71-35.502 8.13-52.44 27.507-87.4 122.224-151.9 234.692-151.9 35.366-0.135 70.462 6.505 103.389 19.378l78.05-43.768c3.252-1.761 7.588-0.677 9.35 2.71a6.753 6.753 0 0 1 0.27 6.233l-31.3 65.855zM631.717 311.98c-1.761-13.28-12.195-23.578-25.339-25.34-16.125-2.167-30.895 9.35-33.063 25.34-2.168 16.125 9.35 30.895 25.34 33.063 16.124 2.168 30.894-9.35 33.062-25.34 0.271-2.71 0.271-5.284 0-7.723z m145.531-25.61c-16.26 0-29.404 13.28-29.404 29.404s13.28 29.404 29.404 29.404c16.26 0 29.404-13.28 29.404-29.404s-13.279-29.404-29.404-29.404z"  horiz-adv-x="1043" />

    


  </font>
</defs>
</svg>
